<svg xmlns="http://www.w3.org/2000/svg" viewBox="0 0 430.48 430.48">
<path d="M353.92,255.802v0.16H8c-4.418,0-8,3.582-8,8s3.582,8,8,8h136c9.121,0.005,18.121,2.084,26.32,6.08H27.68 c-4.418,0-8,3.582-8,8s3.582,8,8,8h162.96c1.85,2.276,3.534,4.683,5.04,7.2h-168c-4.418,0-8,3.582-8,8s3.582,8,8,8h174.8 c0.628,2.368,1.109,4.773,1.44,7.2h-176c-4.418,0-8,3.582-8,8s3.582,8,8,8h176c-0.332,2.427-0.813,4.832-1.44,7.2H27.68 c-4.418,0-8,3.582-8,8s3.582,8,8,8h168c-1.506,2.517-3.19,4.924-5.04,7.2H27.68c-4.418,0-8,3.582-8,8s3.582,8,8,8h142.56 c-8.198,3.998-17.199,6.078-26.32,6.08H8c-4.418,0-8,3.582-8,8s3.582,8,8,8h345.92c42.283,0,76.56-34.277,76.56-76.56 C430.48,290.08,396.203,255.802,353.92,255.802z"/>
<path d="M291.68,127.322c0-2.64,0-5.2,0-8c0-4.418-3.582-8-8-8h-165.6c-4.418,0-8,3.582-8,8c0,44.32,0,125.68,90.8,125.68h0 c33.68,0,54.88-11.2,68.24-27.52h4.96c3.676-0.031,7.343-0.379,10.96-1.04c24-4.08,57.36-26.4,57.36-53.52 C342.4,138.922,317.44,129.002,291.68,127.322z M282.32,200.842l-3.2,0.48c7.819-18.348,11.951-38.056,12.16-58 c15.6,1.44,35.12,6.48,35.12,19.84C326.4,179.162,301.76,197.562,282.32,200.842z"/>
<path d="M159.2,65.322c6.261-4.676,10.291-11.749,11.12-19.52c-0.609-8.482-4.619-16.358-11.12-21.84 c-3.093-3.159-8.161-3.213-11.32-0.12c-3.159,3.093-3.213,8.161-0.12,11.32c5.92,6.08,6.56,9.28,6.56,10.32 c0,1.04-3.12,5.2-6.4,8.24c-7.44,7.2-21.28,20.48-0.56,43.12c2.982,3.27,8.05,3.502,11.32,0.52c3.27-2.982,3.502-8.05,0.52-11.32 C149.04,75.002,151.2,72.522,159.2,65.322z"/>
<path d="M206.72,65.322c6.261-4.676,10.291-11.749,11.12-19.52c-0.63-8.454-4.638-16.297-11.12-21.76 c-3.093-3.159-8.161-3.213-11.32-0.12c-3.159,3.093-3.213,8.161-0.12,11.32c6,6.08,6.56,9.28,6.56,10.32s-3.12,5.12-6.32,8.16 c-7.44,7.2-21.28,20.48-0.56,43.12c2.773,3.44,7.809,3.981,11.249,1.208s3.981-7.809,1.208-11.249 c-0.216-0.268-0.449-0.521-0.697-0.759C196.56,75.002,198.72,72.522,206.72,65.322z"/>
<path d="M254.32,65.322c6.261-4.676,10.291-11.749,11.12-19.52c-0.63-8.454-4.638-16.297-11.12-21.76 c-3.093-3.159-8.161-3.213-11.32-0.12c-3.159,3.093-3.213,8.161-0.12,11.32c5.92,6.08,6.56,9.28,6.56,10.32s-3.12,5.12-6.32,8.16 c-7.44,7.2-21.28,20.48-0.56,43.12c2.773,3.44,7.809,3.981,11.249,1.208c3.44-2.773,3.981-7.809,1.208-11.249 c-0.216-0.268-0.449-0.521-0.697-0.759C244.16,75.002,246.32,72.522,254.32,65.322z"/>
</svg>
