<svg viewBox="-31.256 0 1124.2 369.124" xmlns="http://www.w3.org/2000/svg" xmlns:bx="https://boxy-svg.com">
  <defs>
    <bx:guide x="466.686" y="336.247" angle="-90"></bx:guide>
  </defs>
  <path d="M 286.954 211.48 L 286.954 211.61 L 6.486 211.61 C 2.904 211.61 0 214.514 0 218.096 C 0 221.678 2.904 224.582 6.486 224.582 L 116.753 224.582 C 124.149 224.586 131.446 226.272 138.093 229.512 L 22.443 229.512 C 18.861 229.512 15.956 232.416 15.956 235.998 C 15.956 239.58 18.861 242.484 22.443 242.484 L 154.568 242.484 C 156.068 244.33 157.434 246.281 158.655 248.322 L 22.443 248.322 C 18.861 248.322 15.956 251.226 15.956 254.808 C 15.956 258.39 18.861 261.295 22.443 261.295 L 164.168 261.295 C 164.677 263.214 165.067 265.164 165.336 267.132 L 22.637 267.132 C 19.055 267.132 16.151 270.036 16.151 273.618 C 16.151 277.201 19.055 280.105 22.637 280.105 L 165.336 280.105 C 165.066 282.073 164.676 284.023 164.168 285.942 L 22.443 285.942 C 18.861 285.942 15.956 288.847 15.956 292.429 C 15.956 296.011 18.861 298.915 22.443 298.915 L 158.655 298.915 C 157.434 300.956 156.068 302.907 154.568 304.753 L 22.443 304.753 C 18.861 304.753 15.956 307.657 15.956 311.239 C 15.956 314.821 18.861 317.725 22.443 317.725 L 138.028 317.725 C 131.382 320.967 124.084 322.653 116.688 322.655 L 6.486 322.655 C 2.904 322.655 0 325.559 0 329.141 C 0 332.723 2.904 335.627 6.486 335.627 L 286.954 335.627 C 321.236 335.627 349.028 307.836 349.028 273.554 C 349.028 239.272 321.236 211.48 286.954 211.48 Z" style=""></path>
  <path d="M 236.49 107.31 C 236.49 105.169 236.49 103.094 236.49 100.824 C 236.49 97.242 233.586 94.337 230.004 94.337 L 95.738 94.337 C 92.156 94.337 89.251 97.242 89.251 100.824 C 89.251 136.758 89.251 202.723 162.871 202.723 C 190.178 202.723 207.367 193.642 218.199 180.41 L 222.22 180.41 C 225.201 180.385 228.174 180.103 231.107 179.567 C 250.566 176.259 277.613 158.162 277.613 136.174 C 277.613 116.715 257.376 108.672 236.49 107.31 Z M 228.901 166.919 L 226.307 167.308 C 232.646 152.432 235.997 136.453 236.166 120.282 C 248.814 121.45 264.641 125.536 264.641 136.368 C 264.641 149.341 244.663 164.26 228.901 166.919 Z" style=""></path>
  <path d="M 129.077 57.041 C 134.154 53.25 137.421 47.515 138.093 41.215 C 137.599 34.337 134.348 27.952 129.077 23.507 C 126.57 20.946 122.46 20.902 119.899 23.41 C 117.338 25.917 117.294 30.026 119.802 32.588 C 124.602 37.517 125.121 40.112 125.121 40.955 C 125.121 41.798 122.591 45.171 119.932 47.636 C 113.899 53.474 102.678 64.241 119.478 82.597 C 121.895 85.248 126.004 85.436 128.656 83.019 C 131.307 80.601 131.495 76.492 129.077 73.841 C 120.84 64.89 122.591 62.879 129.077 57.041 Z" style=""></path>
  <path d="M 167.606 57.041 C 172.682 53.25 175.95 47.515 176.622 41.215 C 176.111 34.36 172.861 28.001 167.606 23.572 C 165.098 21.011 160.989 20.967 158.428 23.475 C 155.866 25.982 155.823 30.091 158.33 32.653 C 163.195 37.582 163.649 40.177 163.649 41.02 C 163.649 41.863 161.12 45.171 158.525 47.636 C 152.493 53.474 141.272 64.241 158.071 82.597 C 160.319 85.386 164.402 85.825 167.192 83.577 C 169.981 81.328 170.419 77.245 168.171 74.456 C 167.996 74.239 167.807 74.034 167.606 73.841 C 159.368 64.89 161.12 62.879 167.606 57.041 Z" style=""></path>
  <path d="M 206.199 57.041 C 211.276 53.25 214.543 47.515 215.215 41.215 C 214.704 34.36 211.455 28.001 206.199 23.572 C 203.692 21.011 199.582 20.967 197.021 23.475 C 194.46 25.982 194.416 30.091 196.924 32.653 C 201.724 37.582 202.243 40.177 202.243 41.02 C 202.243 41.863 199.713 45.171 197.119 47.636 C 191.086 53.474 179.865 64.241 196.664 82.597 C 198.913 85.386 202.996 85.825 205.785 83.577 C 208.574 81.328 209.013 77.245 206.764 74.456 C 206.589 74.239 206.4 74.034 206.199 73.841 C 197.962 64.89 199.713 62.879 206.199 57.041 Z" style=""></path>
  <path d="M 555.379 151.639 C 554.549 149.149 553.443 147.213 551.783 145.553 C 550.4 144.17 548.187 143.064 545.974 141.681 C 543.485 140.021 540.166 139.192 536.847 139.468 C 533.527 140.021 530.485 141.404 527.719 143.341 C 524.123 145.553 520.527 148.596 518.038 151.915 C 515.272 155.511 512.782 159.107 510.016 162.426 L 509.463 163.532 C 500.612 175.15 493.42 185.937 484.846 198.384 C 484.293 198.937 482.633 201.427 481.25 203.916 C 479.314 201.15 477.654 198.661 477.101 197.831 C 468.803 185.384 461.335 174.873 452.484 163.256 L 451.654 162.149 C 449.164 158.277 446.398 155.234 443.632 151.639 C 441.143 148.319 437.824 145.277 434.505 142.787 C 431.462 140.851 428.696 139.192 424.824 139.192 C 421.781 138.915 418.738 139.468 415.972 141.404 C 413.76 142.511 411.823 143.894 410.164 145.277 C 408.504 146.936 407.398 148.873 406.845 151.362 C 406.568 153.022 406.568 154.958 407.121 156.894 C 407.951 159.383 408.781 161.873 410.164 164.086 C 411.27 166.575 412.377 168.511 414.036 170.724 C 415.696 172.937 417.079 174.873 418.185 176.533 L 421.228 181.511 L 457.186 232.406 L 463.271 241.81 L 463.271 317.322 C 463.271 318.705 463.271 320.641 463.824 322.301 C 464.101 324.237 465.207 325.897 465.76 328.109 C 466.867 329.769 467.973 331.429 469.633 332.535 C 471.292 334.195 473.782 335.024 476.271 335.301 C 481.25 336.407 486.229 335.854 490.101 333.918 C 492.037 332.535 493.697 330.875 494.803 328.939 C 495.08 328.109 495.357 327.833 495.633 327.28 C 495.633 326.726 495.91 326.173 496.186 325.62 C 497.016 323.684 497.293 322.024 497.846 320.365 C 498.123 318.152 498.123 316.492 498.676 314.556 L 498.676 240.98 L 505.038 232.959 L 540.442 181.788 L 544.038 177.086 C 545.145 175.15 546.528 173.213 547.911 171.001 C 549.57 169.064 550.953 166.852 552.06 164.362 C 553.166 162.149 553.996 159.66 554.549 157.447 C 555.655 155.234 555.655 153.575 555.379 151.639 Z M 581.097 210.554 C 565.884 218.023 553.99 231.576 548.181 253.427 C 537.117 294.917 561.735 335.024 605.714 337.514 C 617.884 338.62 631.438 336.407 642.502 331.429 C 651.076 327.556 659.098 320.641 664.077 312.62 C 674.864 294.917 680.119 273.343 674.034 253.151 C 670.992 241.81 664.353 228.533 656.055 220.235 C 635.31 200.32 605.714 198.384 581.097 210.554 Z M 589.395 247.619 C 601.012 236.831 625.629 235.448 634.757 250.385 C 647.481 270.853 634.757 304.598 610.969 303.215 C 600.735 302.662 589.671 298.513 586.075 292.981 C 576.948 279.981 578.607 258.13 589.395 247.619 Z M 867.376 315.662 C 867.653 309.854 867.1 303.769 867.1 298.513 C 867.1 273.619 866.823 245.959 866.823 221.065 C 866.823 200.597 866.27 180.128 866.27 159.66 C 866.27 157.447 865.993 155.234 865.717 152.745 C 865.44 150.809 864.887 148.596 864.334 146.66 C 863.504 144.724 862.397 143.341 861.014 141.958 C 859.078 140.298 857.142 139.192 854.653 138.915 C 852.44 138.638 850.227 138.362 847.461 138.362 C 835.567 138.638 823.95 157.724 818.695 166.298 C 806.524 186.49 800.162 196.171 792.418 208.065 C 791.035 210.831 786.332 217.746 784.396 219.959 C 777.758 210.831 770.566 197.554 760.885 182.065 C 756.46 174.873 748.438 161.32 742.63 154.681 C 737.927 149.702 732.949 140.298 725.48 138.915 C 723.268 138.638 720.778 138.362 718.289 138.362 C 715.246 138.362 712.204 139.192 709.438 140.851 C 706.672 142.511 705.012 144.724 703.629 147.49 C 702.246 150.809 701.14 154.405 701.14 158.277 C 700.033 173.767 699.48 189.533 699.48 205.576 L 699.48 242.64 L 699.203 285.236 L 698.927 306.811 C 698.927 311.79 699.203 316.769 699.48 321.748 C 700.033 326.45 702.523 332.812 707.225 335.854 C 722.438 343.876 734.885 333.088 734.885 320.641 C 735.991 320.365 736.268 204.193 736.544 202.81 C 748.438 224.938 759.779 239.874 768.63 250.938 C 771.949 255.087 778.034 262.002 784.12 261.449 C 794.63 260.619 800.992 253.151 829.759 205.299 C 830.312 217.469 830.035 218.299 830.035 219.406 C 830.312 232.406 830.312 231.299 830.312 243.193 L 830.588 285.513 L 830.588 307.088 C 830.865 316.769 829.482 329.769 839.716 336.131 C 843.865 338.067 848.567 338.897 853.823 337.237 C 856.865 336.961 859.078 335.854 861.014 334.195 C 862.397 333.088 863.78 331.152 864.61 329.216 C 866.27 325.067 867.1 320.088 867.376 315.662 Z M 933.473 230.746 C 933.473 221.618 932.919 208.618 930.153 204.193 C 925.451 197.278 908.855 197.554 903.876 203.639 C 896.961 213.044 899.174 234.342 898.898 244.576 C 898.621 262.002 899.174 290.492 899.451 307.641 C 900.004 324.237 904.706 333.918 916.047 334.471 C 931.813 335.301 932.919 318.428 933.473 307.364 C 934.302 284.683 933.473 251.215 933.473 230.746 Z M 922.962 174.873 C 937.622 170.171 939.834 154.958 927.111 145.83 C 914.111 136.426 898.621 145.277 901.664 161.043 C 903.323 171.554 911.621 177.916 922.962 174.873 Z M 970.26 131.723 C 967.217 136.426 966.387 144.724 966.387 149.149 L 966.387 241.81 C 966.387 248.725 966.111 255.64 966.387 262.002 C 966.664 265.874 967.217 271.683 968.324 275.002 C 973.302 286.896 999.856 287.726 1004.835 275.279 C 1007.324 268.64 1006.771 260.896 1006.771 253.704 L 1006.771 172.107 C 1006.771 160.213 1010.92 129.787 995.43 125.638 C 991.835 124.808 987.962 124.808 983.813 124.808 C 979.111 124.808 973.302 127.021 970.26 131.723 Z M 1002.069 309.577 C 997.367 304.875 989.898 304.875 982.983 305.152 C 977.451 305.152 972.196 306.811 969.983 312.343 C 968.047 317.599 968.324 325.067 970.26 330.322 C 973.856 340.003 989.345 341.386 997.367 338.067 C 1006.494 334.195 1007.048 322.854 1004.835 315.109 C 1004.282 312.896 1003.175 311.237 1002.069 309.577 Z"></path>
</svg>